#!OML:ASF F:\VICON\USERDATA\INSTALL\rory3\rory3.ASF
:FULLY-SPECIFIED
:DEGREES
71
root 0.03869846151614714 17.875090781272647 28.842926523153395 -0.7804333813145852 -5.046727286041651 -6.626119273415102
lfemur -28.27850664158271 3.371713653400826 -11.41960529273658
ltibia 44.53077312241952
lfoot -8.372141419146685 3.8298027011159377
ltoes -4.952485464787872
rfemur 1.5130710581189977 5.475239012878219 34.221583653880764
rtibia 29.074679344650143
rfoot -13.221782443890248 -3.151123047541645
rtoes 5.312378783923032
lowerback nan 1.788109068972606 7.151452670985022
upperback 0.076196074960476 3.31502634331319 1.8317078297647593
thorax -5.280738922104608 1.4668918759207914 -2.3055099761007183
lowerneck -16.259245782398114 -2.8852343104958567 -1.5627816886373003
upperneck 20.78939254240522 -3.789608307216265 0.8953410387195102
head 9.280109743466928 -1.8134317034975254 0.100544716757976
lclavicle 4.772938908679712e-16 -1.3162089939856199e-15
lhumerus -36.86697645901243 7.192676503017953 80.22270266038363
lradius 23.58097912386548
lwrist 4.603048005147186
lhand -28.19557844721826 19.71850407772996
lfingers nan
lthumb -1.4875381928967164 50.09885814494039
rclavicle -7.039933885501688e-16 -2.2550636321448175e-15
rhumerus -21.759137587835536 -9.029465568571318 -82.06815770225414
rradius 30.538473347906873
rwrist -2.780184418451408
rhand -18.49109206727259 nan
rfingers nan
rthumb 7.884595434408 -7.001324960638092
72
root 0.07155249669503927 17.819735271659187 29.461274221604192 0.009105879807926431 -5.651584327728338 -6.910074608599809
lfemur -28.171236481977346 -0.5222090760720237 -9.991960928465254
ltibia 32.73486170209312
lfoot -6.764938997683694 4.15816158931036
ltoes -6.113773384863396
rfemur 3.919451520862589 5.629795651535033 34.40383239200984
rtibia 26.927122943108106
rfoot -13.471683528063052 -4.280029495621808
rtoes 4.2601698387858145
lowerback nan 2.0327155116419577 7.483540956903999
upperback 0.01413742125723727 3.6564533370399044 1.8170870499076144
thorax -5.202768318396562 1.62188537860139 -2.577208425598805
lowerneck -16.327895493167734 -2.8991597290697477 -1.4995267837926132
upperneck 20.636349185957787 -3.8259152096864852 0.9345001326198102
head 9.240313969667223 -1.8210410580214487 0.10021757588296365
lclavicle 6.94148414906343e-16 -1.1609367326304562e-15
lhumerus -37.38673457904172 8.47153976284287 79.68263483337415
lradius 22.304150841433373
lwrist 3.7273602999067914
lhand -28.361905209907377 19.435416277344096
lfingers nan
lthumb -1.7573603695407285 49.391349980972585
rclavicle -5.789067812265903e-16 -2.1576953853323893e-15
rhumerus -20.808855637260514 -8.487061913229072 -82.24029518625792
rradius 31.24353578519927
rwrist -3.1516798507651798
rhand -18.580373285138837 nan
rfingers nan
rthumb 7.777927720407059 -6.692399704907412
73
root 0.10949451844640518 17.764804806676064 29.987522363380457 0.45128649811734567 -6.242008889926879 -7.1527574454170395
lfemur -27.66431103384169 -5.937644145941215 -8.47168017341935
ltibia 20.814680507688607
lfoot -6.888456101446906 3.103757178167868
ltoes -7.875883997223156
rfemur 6.995109653980975 5.989380089173964 34.44266666153863
rtibia 24.248899878859746
rfoot -14.617001487618964 -5.009003637414025
rtoes 2.578099338961201
lowerback nan 2.2287665049021426 7.6427741423552815
upperback -0.021937873520007603 3.8948467039178487 1.783493884142094
thorax -5.063565800746954 1.7367211783116536 -2.735272513437339
lowerneck -16.38158520967622 -2.9343265631798716 -1.4605372040537092
upperneck 20.494166587748637 -3.8992628904277375 1.00827384160564
head 9.205230877936906 -1.8421026792428785 0.10675485259053215
lclavicle 8.411797690783058e-16 -1.0348533985000838e-15
lhumerus -37.752488455326265 9.719904821580416 79.13510880428363
lradius 20.977293583298607
lwrist 2.757182583110637
lhand -28.36795897474719 19.543139126162075
lfingers nan
lthumb -1.8635152477877948 49.15565860657138
rclavicle -4.616967405682527e-16 -2.0499778868882867e-15
rhumerus -20.28184451135745 -8.381401622929145 -82.37092360069921
rradius 31.686329167938492
rwrist -3.3264325506228696
rhand -18.607350309054336 nan
rfingers nan
rthumb 7.691445313266495 -6.470573990579484
74
root 0.16257882580302135 17.7071370961178 30.240264750196133 0.4288613821635088 -6.424292849823427 -6.99286279974799
lfemur -27.0759562705791 -8.826863805644058 -8.34180166103136
ltibia 12.62640825985791
lfoot -7.496891538273312 1.8317257236404991
ltoes -9.039581212489072
rfemur 9.533443633738003 6.139451078669154 34.16950917876161
rtibia 23.36805352058964
rfoot -15.981145413938584 -4.544168594130813
rtoes 0.6861969870389992
lowerback nan 2.314759687379861 7.467849676398263
upperback -0.05832695167954048 3.975918905178129 1.7008556199374951
thorax -4.992297259356209 1.7952534846302997 -2.747560462952589
lowerneck -16.40330655910939 -2.98766067753846 -1.4547487438954643
upperneck 20.38502923831246 -4.002310706927063 1.1252126841912236
head 9.178334453000472 -1.8735438784264389 0.12654538332637985
lclavicle 9.175478408820051e-16 -9.510731607156391e-16
lhumerus -37.986868523753614 10.831796731444062 78.6201818019087
lradius 19.732930173751615
lwrist 1.6643266001077586
lhand -28.067052099920208 20.246480288744472
lfingers nan
lthumb -1.638205461196872 49.688842932471225
rclavicle -3.5874968249957453e-16 -1.9488746076569995e-15
rhumerus -20.185325633441714 -8.622773714623413 -82.43371388955903
rradius 31.837468275707888
rwrist -3.312423310504734
rhand -18.57673881575184 nan
rfingers nan
rthumb 7.636180480644075 -6.3928166642207644
75
root 0.20790188500583948 17.66278950096953 30.07463295661144 -0.18462661378870981 -6.509090068174023 -6.944313422775288
lfemur -27.740362583585075 -5.7709717897269535 -10.133722014471406
ltibia 12.901724044368926
lfoot -9.190256393529127 0.22818291131740676
ltoes -8.851316799054844
rfemur 10.59396375368355 6.074274721150395 33.64775391264739
rtibia 25.544273432988994
rfoot -16.397776299397165 -3.0859396430856636
rtoes -0.8207015779114739
lowerback nan 2.3782605264332854 7.40905854356804
upperback -0.09457977206795858 4.0060316589332965 1.6364075598168621
thorax -4.992364275597037 1.8245125586575286 -2.6848934246048737
lowerneck -16.36678525801426 -3.043368397963556 -1.4629647245480681
upperneck 20.314750050308206 -4.113206703619189 1.2653763066212642
head 9.156620975612215 -1.908476177423641 0.15776791796149134
lclavicle 1.0117684201792246e-15 -8.770755594248209e-16
lhumerus -38.11572538248444 11.705422223552358 78.17732042730842
lradius 18.71422079476329
lwrist 0.6249525383256307
lhand -27.486875795332946 21.489599618069892
lfingers nan
lthumb -1.1426481866616502 50.817492229331386
rclavicle -2.430969839249444e-16 -1.852401563333243e-15
rhumerus -20.52579222179719 -9.186402875792858 -82.42339645359087
rradius 31.710651248000975
rwrist -3.139886032052063
rhand -18.525276362323066 nan
rfingers nan
rthumb 7.628079010484682 -6.448304564571995
76
root 0.2526665420264184 17.711791226919736 29.856685015670003 -1.3094501254588606 -5.860303172328487 -6.497152030813432
lfemur -28.991234373942774 -3.4126190244899908 -12.349887903251876
ltibia 18.38451237424865
lfoot -7.900203014323697 -0.7806367454828249
ltoes -8.15455377823738
rfemur 10.958883460848728 5.5085541057916325 32.62703783562601
rtibia 29.80274137829144
rfoot -14.815687672588131 -1.2765029642212111
rtoes -1.3015519724805173
lowerback nan 2.3081262039603034 6.94129222548724
upperback -0.0855752407743756 3.8818605189270805 1.5471757722956798
thorax -5.015445742400097 1.7990111534570241 -2.4646189775668725
lowerneck -16.291614307366135 -3.1046762363679887 -1.5215376632093354
upperneck 20.298361632270502 -4.231539992964053 1.4376243510613913
head 9.147126355733501 -1.947235624513488 0.2068503457264198
lclavicle 1.0894497732922694e-15 -8.115267609505586e-16
lhumerus -38.13802841591277 12.257331427096982 77.8498802102014
lradius 18.03148023056213
lwrist -0.12158240232827033
lhand -26.9287240685384 22.59910716884271
lfingers nan
lthumb -0.626201456679109 51.890755223937056
rclavicle -1.6043948310621135e-16 -1.776330093735396e-15
rhumerus -21.22022096268569 -9.99535405834132 -82.34449510294182
rradius 31.351290162178806
rwrist -2.8361688837422347
rhand -18.474917411985047 nan
rfingers nan
rthumb 7.659090168607481 -6.593315118689046
